<svg width="81" height="89" viewBox="0 0 81 89" fill="none" xmlns="http://www.w3.org/2000/svg">
<path d="M33.4695 4.7565C33.4702 2.12933 35.6002 0 38.2274 0H40.1603C41.9019 0 43.3138 1.41188 43.3138 3.15352V4.34428C43.3138 5.51626 44.3948 6.43658 45.5667 6.43282V6.43282C47.5838 6.42637 47.9186 9.14575 46.2809 10.3232C38.7804 15.7157 35.1535 23.6888 34.4478 25.2397V25.2397C34.4157 25.3097 34.3414 25.3499 34.2653 25.3385C31.4738 24.9189 28.4614 24.5708 25.6088 24.5975C22.6215 24.8534 19.7252 25.2939 14.9539 27.981C14.3295 28.4231 13.5067 29.1226 12.4094 30.1695C12.2545 30.3172 12.0109 30.339 11.8312 30.2227V30.2227L11.4596 29.9865C10.5284 29.3831 9.56391 28.8326 8.57073 28.3378C7.38446 27.7493 6.07077 27.2024 4.69669 26.7901C2.17207 26.0326 0 23.9052 0 21.2693V21.2693C0 18.6335 2.15461 16.4646 4.74256 16.9648C8.0023 17.5948 10.8756 18.7616 13.0542 19.8433C13.1332 19.8826 13.2115 19.9218 13.2891 19.961C14.7331 20.6902 16.5237 20.1411 17.4459 18.812V18.812C18.1365 17.8166 18.2542 16.4989 17.6028 15.4774L16.0467 13.037C14.5221 10.6461 15.2102 7.47303 17.5883 5.92839L17.8643 5.74907C20.119 4.28458 23.1352 4.93893 24.5804 7.20608L24.861 7.64632C26.0426 9.50015 28.4322 10.1273 30.4787 9.32431V9.32431C32.2283 8.63776 33.4688 7.00218 33.4694 5.12269L33.4695 4.7565ZM59.941 21.3862C57.5455 22.4969 55.3651 24.0836 53.3477 26.5814C51.4678 28.909 50.2118 30.8944 47.4507 29.7422V29.7422C44.2081 28.3891 40.5725 23.7922 42.6099 20.9296C45.7386 16.5338 49.4139 13.62 54.2025 11.4006C59.1919 9.08661 64.9274 8.11022 71.507 7.93897C74.7465 7.85465 77.2805 10.6065 77.1607 13.8449V13.8449C77.0413 17.073 74.3295 19.5599 71.0993 19.5824C66.1286 19.617 62.7579 20.0808 59.941 21.3862Z" fill="white"/>
<path d="M16.9358 32.5335C-0.936488 48.4741 24.5936 88.3257 45.0201 88.3257C65.4467 88.3257 93.5704 48.5086 73.1045 30.2548C72.6784 29.8741 72.2551 29.4902 71.8347 29.1032V29.1032C68.2462 25.8172 62.8045 24.1839 59.1756 27.4253C56.7561 29.5865 55.0938 32.583 54.1076 34.7752V34.7752C53.9346 35.1554 53.7159 35.5163 53.5745 35.9094L49.8136 46.3653L48.384 51.5057C48.2327 52.0478 48.2717 52.6254 48.4947 53.1421L48.6921 53.5978C49.5684 55.6211 51.6666 56.8316 53.8568 56.5775L56.3791 56.2849C57.7286 56.1284 58.9496 57.0952 59.1066 58.4447V58.4447C59.2635 59.7944 58.2967 61.0158 56.947 61.1728L55.0159 61.3975C52.9066 61.6429 51.3619 63.5016 51.5065 65.6202L51.6098 67.135C51.7023 68.4906 50.6783 69.6646 49.3226 69.757V69.757C47.9671 69.8494 46.7932 68.8254 46.7008 67.4698L46.3053 61.6687C46.2414 60.7306 46.0179 59.8101 45.6447 58.947L43.9792 55.0959C43.3082 53.5455 43.1892 51.8119 43.6421 50.1843V50.1843C43.6588 50.1236 43.5972 50.071 43.5398 50.0969L39.4786 51.9339C38.9656 52.1659 38.563 52.5883 38.3559 53.1118L36.3115 58.2779C35.8115 59.5417 34.3816 60.1608 33.1178 59.6607V59.6607C31.8539 59.1605 31.2348 57.7303 31.7352 56.4665L32.0314 55.7185C32.7647 53.8663 31.683 51.7949 29.744 51.3382L27.9183 50.9082C26.5957 50.5967 25.7759 49.2722 26.0871 47.9495V47.9495C26.3984 46.6262 27.7237 45.806 29.0469 46.1178L34.0045 47.2861C35.628 47.6687 37.3325 47.503 38.8519 46.815L42.9172 44.9743C44.5698 44.2259 45.8489 42.8402 46.4629 41.1331V41.1331C47.6342 37.8764 46.1496 34.2322 42.9204 32.9869C34.5877 29.7734 23.1467 26.9884 16.9333 32.5286" fill="white"/>
</svg>
