<svg width="108" height="86" viewBox="0 0 108 86" fill="none" xmlns="http://www.w3.org/2000/svg">
<g clip-path="url(#clip0_2410_1220)">
<path d="M54 0C56.9869 0 59.4 2.40195 59.4 5.375V27.5637C59.4 30.3184 60.8175 32.8883 63.1463 34.3664L64.8 35.4078V27.7652C64.8 21.332 70.0312 16.125 76.4944 16.125C80.1562 16.125 83.7169 17.8383 85.9106 20.9625C88.5094 24.6746 93.3862 31.9477 97.8919 40.598C102.364 49.1477 106.734 59.4945 107.949 69.2031C107.983 69.4215 107.983 69.6398 107.983 69.875V71.0508C107.983 79.298 101.267 86 92.9644 86C91.7325 86 90.5175 85.8488 89.3194 85.5465L77.0513 82.4895C69.8625 80.709 64.8 74.259 64.8 66.8516V54.5898L80.0719 64.2648C81.3375 65.0543 82.9913 64.6848 83.8013 63.4418C84.6113 62.1988 84.2231 60.5359 82.9744 59.7297L64.8 48.2238V48.1566L57.3581 43.4367C56.1262 42.6641 55.0125 41.7402 54 40.7324C53.0044 41.7402 51.8738 42.6641 50.6419 43.4367L43.2 48.1566L27.2025 58.2852L24.9244 59.7297H24.9075C23.6588 60.5359 23.2875 62.182 24.0975 63.4418C24.8906 64.7016 26.5612 65.0711 27.8269 64.2648L43.2 54.5227V66.8516C43.2 74.259 38.1375 80.709 30.9319 82.4895L18.6638 85.5465C17.4656 85.8488 16.2506 86 15.0188 86C6.73313 86 0 79.3148 0 71.0508V69.875C0 69.6566 0.016875 69.4215 0.03375 69.2031C1.24875 59.4777 5.61937 49.1477 10.0913 40.598C14.6138 31.9477 19.4738 24.6746 22.0725 20.9625C24.2663 17.8383 27.81 16.125 31.4888 16.125C37.9688 16.125 43.2 21.332 43.2 27.7652V35.4078L44.8537 34.3664C47.1825 32.8883 48.6 30.3184 48.6 27.5637V5.375C48.6 2.40195 51.0131 0 54 0Z" fill="white"/>
</g>
<defs>
<clipPath id="clip0_2410_1220">
<rect width="108" height="86" rx="43" fill="white"/>
</clipPath>
</defs>
</svg>
