<svg width="86" height="86" viewBox="0 0 86 86" fill="none" xmlns="http://www.w3.org/2000/svg">
<path d="M39.4345 53.3559C38.1093 56.0065 40.0367 59.125 43 59.125V59.125C45.9634 59.125 47.8907 56.0065 46.5655 53.3559V53.3559C45.0964 50.4178 40.9036 50.4178 39.4345 53.3559V53.3559ZM27.95 47.3C30.315 47.3 32.3403 46.4586 34.0259 44.7759C35.7115 43.0932 36.5529 41.0679 36.55 38.7C36.5471 36.3321 35.7058 34.3083 34.0259 32.6284C32.346 30.9485 30.3207 30.1057 27.95 30.1C25.5793 30.0943 23.5554 30.9371 21.8784 32.6284C20.2014 34.3197 19.3586 36.3436 19.35 38.7C19.3414 41.0564 20.1842 43.0817 21.8784 44.7759C23.5726 46.4701 25.5965 47.3115 27.95 47.3ZM58.05 47.3C60.415 47.3 62.4403 46.4586 64.1259 44.7759C65.8115 43.0932 66.6529 41.0679 66.65 38.7C66.6471 36.3321 65.8058 34.3083 64.1259 32.6284C62.446 30.9485 60.4207 30.1057 58.05 30.1C55.6793 30.0943 53.6554 30.9371 51.9784 32.6284C50.3014 34.3197 49.4586 36.3436 49.45 38.7C49.4414 41.0564 50.2842 43.0817 51.9784 44.7759C53.6726 46.4701 55.6965 47.3115 58.05 47.3ZM23.65 86C20.0878 86 17.2 83.1122 17.2 79.55V74.9575C17.2 70.565 14.426 66.7709 11.064 63.944C10.642 63.5892 10.2321 63.2198 9.83411 62.8359C7.71852 60.7948 5.92685 58.4829 4.45912 55.9C2.99138 53.3171 1.88055 50.558 1.12662 47.6225C0.372683 44.687 -0.00285038 41.7129 1.62879e-05 38.7C1.62879e-05 27.3767 4.01335 18.0958 12.04 10.8575C20.0667 3.61917 30.3867 0 43 0C55.6133 0 65.9333 3.61917 73.96 10.8575C81.9867 18.0958 86 27.3767 86 38.7C86 41.71 85.6245 44.6842 84.8734 47.6225C84.1223 50.5608 83.0115 53.32 81.5409 55.9C80.0703 58.48 78.2786 60.792 76.1659 62.8359C75.7697 63.2192 75.3615 63.5879 74.9412 63.942C71.5803 66.7742 68.8 70.5683 68.8 74.9634V79.55C68.8 83.1122 65.9122 86 62.35 86H60.2C57.8252 86 55.9 84.0748 55.9 81.7V81.7C55.9 79.3252 53.9748 77.4 51.6 77.4V77.4C49.2252 77.4 47.3 79.3252 47.3 81.7V81.7C47.3 84.0748 45.3748 86 43 86V86C40.6252 86 38.7 84.0748 38.7 81.7V81.7C38.7 79.3252 36.7748 77.4 34.4 77.4V77.4C32.0252 77.4 30.1 79.3252 30.1 81.7V81.7C30.1 84.0748 28.1748 86 25.8 86H23.65Z" fill="#EBEBEB"/>
</svg>
